<svg id="svg2041" xmlns="http://www.w3.org/2000/svg" width="160" height="76" viewBox="0 0 290.78 139.8"><defs><style>.cls-1{fill:#454545;}</style></defs><title>gazprom</title><g id="layer1"><g id="g2058"><path id="path26" class="cls-1" d="M250.92,418h18.46v6H260.6V466.4h-9.68V418" transform="translate(-161.11 -326.6)"/><path id="path28" class="cls-1" d="M280.32,448.23,282,424h.55l1.66,24.2ZM269.6,466.4h9.48l.89-12.85h4.57l.9,12.85h9.46l-5-48.4H274.65l-5,48.4" transform="translate(-161.11 -326.6)"/><path id="path30" class="cls-1" d="M308.76,449.46v9.12a1.49,1.49,0,0,0,1.51,1.59,1.56,1.56,0,0,0,1.55-1.59V447.32c0-1.51-.28-3.18-3.89-3.18H304v-5.31h4.09c2.73,0,3.73-.64,3.73-3.61v-9.6a1.57,1.57,0,0,0-1.55-1.59,1.46,1.46,0,0,0-1.51,1.59v7.89h-9.68v-6.86c0-3.37.4-8.65,7.18-8.65h8c6.78,0,7.22,5.28,7.22,8.65v7.73c0,5.28-3.69,6.71-6.59,6.59v.48c6.51-.16,6.59,4.84,6.59,6.54v9.76c0,3.41-.44,8.65-7.22,8.65h-8c-6.78,0-7.18-5.24-7.18-8.65v-8.29h9.68" transform="translate(-161.11 -326.6)"/><path id="path32" class="cls-1" d="M327.84,418h22.42v48.4h-9.68V424h-3.06V466.4h-9.68V418" transform="translate(-161.11 -326.6)"/><path id="path34" class="cls-1" d="M366.28,444.62V424h1.27c1,0,1.79.87,1.79,2.42V442.2c0,1.55-.76,2.42-1.79,2.42ZM356.6,466.4h9.68V449.93h5.56c6.74,0,7.18-5.23,7.18-8.64V426.65c0-3.37-.44-8.65-7.18-8.65H356.6v48.4" transform="translate(-161.11 -326.6)"/><path id="path36" class="cls-1" d="M398.1,458.58a1.56,1.56,0,0,1-1.55,1.59,1.49,1.49,0,0,1-1.51-1.59v-33a1.47,1.47,0,0,1,1.51-1.59,1.57,1.57,0,0,1,1.55,1.59Zm-12.74-.83c0,3.41.44,8.65,7.18,8.65h8.06c6.74,0,7.18-5.24,7.18-8.65v-31.1c0-3.37-.44-8.65-7.18-8.65h-8.06c-6.74,0-7.18,5.28-7.18,8.65v31.1" transform="translate(-161.11 -326.6)"/><path id="path38" class="cls-1" d="M439.27,418h12.62v48.4h-9.68V436.05h-.36l-5,30.35h-7.74l-5-30.35h-.36V466.4h-9.68V418H426.7L433,452l6.26-34" transform="translate(-161.11 -326.6)"/><path id="path40" class="cls-1" d="M238.38,351.83c-3-13-10.39-23.52-11.41-25.23a88,88,0,0,0-10.56,22.06,80,80,0,0,0-2.63,31.81,87.9,87.9,0,0,0,5.38,20.43A72.68,72.68,0,0,0,227,415c3.24-4.21,10.67-16.74,13-33.09C241.28,372.78,241.34,364.8,238.38,351.83ZM227,411.73a35.11,35.11,0,0,1-3.93-16,33.67,33.67,0,0,1,4-15.87A36,36,0,0,1,230.84,395,34.12,34.12,0,0,1,227,411.73Zm10.55-37.88a70.48,70.48,0,0,1-1.46,13.33,82.65,82.65,0,0,0-1.61-18.92c-1.24-5.92-4.74-15.83-7.54-20.4-2.58,4.37-5.76,12.94-7.43,20.36s-1.72,16.42-1.72,19.12a93.89,93.89,0,0,1-1.24-18.53A82.46,82.46,0,0,1,219.21,352a90.93,90.93,0,0,1,7.7-18.45,83.56,83.56,0,0,1,7.81,18.21,81.25,81.25,0,0,1,2.8,22.1" transform="translate(-161.11 -326.6)"/><path id="path42" class="cls-1" d="M232,418H209.46v15.12s0,0,.06,0a13.59,13.59,0,1,1,19.23,19.2s-.05,0-.07.08h0s-.06,0-.08.07A27.15,27.15,0,0,1,186.94,418a27.48,27.48,0,0,1,3.32-4.05,27,27,0,0,1,19.2-7.93V369.68A48.34,48.34,0,1,0,244.75,451V418H232" transform="translate(-161.11 -326.6)"/></g></g></svg>