<svg version="1" xmlns="http://www.w3.org/2000/svg" width="149" height="149" viewBox="0 0 1490 1490"><g fill="#e95f0e"><path d="M605 1475c-149-27-274-94-390-210-89-89-146-185-187-315-33-108-33-301 1-410C99 312 255 140 472 53c210-85 458-63 666 58 90 53 210 180 259 274 70 135 88 210 88 360 0 151-19 226-88 360-49 94-169 221-259 274-166 97-348 130-533 96zm343-108c106-37 177-82 262-167 345-344 200-924-270-1080-90-30-233-37-329-16-240 51-440 244-501 482-85 331 111 680 440 783 93 29 103 30 220 26 80-2 123-9 178-28z"/><path d="M590 1366c-226-58-409-239-465-461-19-77-19-243 0-320 51-202 218-381 416-446 63-20 94-24 204-24s141 4 204 24c198 65 365 244 416 446 19 77 19 243 0 320-51 200-210 373-407 443-60 21-95 26-193 28-79 2-139-1-175-10zm295-31c111-28 203-81 285-164 124-124 180-257 180-426s-56-302-180-426c-118-119-261-179-425-179s-307 60-425 179C196 443 140 576 140 745s56 302 180 426c80 81 173 135 280 163 73 19 211 20 285 1z"/><path d="M693 934c-36-8-80-57-93-103-19-73 9-169 67-223 56-54 118-68 210-48 83 18 81 8 49 189-29 158-29 160-58 170-36 13-144 21-175 15zm97-128c6-5 15-4 23 3 12 9 13 7 10-13-4-21 1-26 39-38l43-15-32-7c-40-9-49-22-31-44 31-35 31-45 1-24-34 24-42 18-44-36 0-24-2-22-15 12-18 50-18 50-43 37-19-11-20-9-15 19 6 28 4 31-26 37l-33 6 27 14c29 15 32 23 14 42-11 11-9 12 10 6 21-6 22-4 23 52v58l20-50c11-27 24-54 29-59zM236 908c4-13 37-84 74-158 51-101 67-143 63-163l-5-27h167l24 158c13 86 25 169 28 185 5 27 5 27-49 27s-56-1-61-30c-6-29-8-30-61-30-50 0-54 2-66 30s-16 30-67 30c-52 0-54-1-47-22zm220-159c-3-17-6-39-6-48-1-18-23 18-34 57-6 19-4 22 20 22s26-2 20-31zM940 918c0-7 13-87 30-178 16-91 30-168 30-172 0-5 59-8 130-8 144 0 138-3 124 69l-6 31h-79c-62 0-79 3-79 14 0 8-3 21-6 30-5 14 5 16 69 16h74l-8 43c-4 23-8 45-9 50 0 4-33 7-74 7h-75l-6 55-7 55h-54c-37 0-54-4-54-12z"/></g></svg>