<svg version="1" xmlns="http://www.w3.org/2000/svg" width="150" height="151" viewBox="0 0 1500 1510"><g fill="#e95f0e"><path d="M560 1491c-261-70-457-265-532-528-32-112-32-295 1-408C103 292 318 84 577 24c96-22 259-20 357 6 264 68 467 272 537 539 28 106 28 277 0 384-69 264-275 470-537 537-101 26-280 27-374 1zm380-97c351-111 545-484 434-834-32-102-86-190-164-269C980 59 623 31 361 224c-109 81-195 200-238 330-24 71-27 97-27 206s3 135 27 206c48 144 152 277 279 357 88 55 157 80 288 101 51 8 177-7 250-30z"/><path d="M610 1394c-229-49-431-246-484-474-9-36-16-108-16-160 0-189 55-325 185-456 63-64 98-90 165-123 193-94 388-94 579 0 144 71 259 204 319 371 24 65 26 87 26 208s-2 143-26 208c-38 105-83 176-164 258-148 150-370 214-584 168zm280-36c298-72 507-380 461-680-39-256-223-458-471-519-75-18-212-16-285 5-217 63-389 242-439 456-47 196 10 408 149 558 153 164 372 232 585 180z"/><path d="M363 1185c-23-19-55-56-72-82-27-41-31-55-31-117 0-92 14-139 50-169l29-25-50-20c-48-21-57-34-40-61 7-11 22-12 64-8 30 4 62 9 69 12 10 4 21-8 33-36 30-66 54-72 300-76 144-2 229 1 270 9 59 13 60 14 92 73 18 33 33 53 33 44 0-29 123-40 134-13 11 29 6 35-45 56s-51 22-26 34c38 20 57 81 57 184v90l-66 70c-63 66-69 70-110 70s-44-2-44-27v-28H480v28c0 25-3 27-38 27-29 0-48-8-79-35zm430-102c-23-2-64-2-90 0s-7 3 42 3c50 0 71-1 48-3zM469 953c8-15-1-20-66-41-83-26-119-24-90 6 21 20 94 51 124 51 12 1 26-7 32-16zm677-12c42-19 61-51 30-51-15 0-148 39-155 46-2 2 2 11 10 20 15 18 48 14 115-15zm-101-173c11-11-26-106-44-114-24-11-399-16-461-7-53 8-56 10-77 53-30 61-29 68 15 73 60 7 560 3 567-5z"/><path d="M199 683c-24-6-5-87 45-186l41-82 120-5c66-3 119-8 118-12-2-5-3-15-3-23 0-31-38-55-86-55-40 0-45-2-34-15 29-34 131-10 150 36 13 30 17 30 84 12 18-5 36 11 36 34 0 6-14 16-32 22l-31 11 21 23c14 15 24 42 28 78l6 56-78 5c-105 8-156 29-177 73l-17 35-87-1c-49-1-95-3-104-6zm386-157c19-8 35-20 35-25 0-14 3-14-58 4-29 9-50 20-47 25 9 14 30 12 70-4zM1085 653c-24-46-65-62-179-70l-78-6 6-56c4-36 14-63 28-78l21-23-31-11c-18-6-32-16-32-22 0-23 18-39 36-34 67 18 71 18 84-13 14-34 63-54 119-48 52 5 52 28 1 28-23 0-50 4-60 10-19 10-43 64-33 74 4 3 59 6 123 6h118l35 68c39 73 75 188 63 200-4 4-51 8-104 10l-97 3-20-38zM980 530c0-5-23-16-52-25-61-18-58-18-58-5 0 14 57 39 88 40 12 0 22-4 22-10z"/></g></svg>