<svg version="1" xmlns="http://www.w3.org/2000/svg" width="153" height="150" viewBox="0 0 1530 1500"><g fill="#e95f0e"><path d="M574 1482c-262-67-464-260-546-522-33-108-33-311 1-420 77-248 252-426 501-510C623-2 827-9 936 15c269 59 482 256 566 525 33 108 33 311-1 420-76 247-250 424-501 510-92 32-323 38-426 12zm361-89c188-47 354-185 441-368 177-369-38-813-446-920-87-23-244-24-330-1-409 110-623 552-446 921 104 218 300 358 546 388 53 7 168-3 235-20z"/><path d="M665 1394c-237-37-434-199-523-432-24-61-26-80-26-212s2-151 26-212c79-206 234-351 443-414 83-25 277-25 360 0 209 63 364 208 443 414 24 61 26 80 26 212s-2 151-26 212c-78 205-235 352-438 412-55 17-228 29-285 20zm207-38c241-43 438-226 498-462 88-344-147-690-512-751-82-14-101-14-184-1-365 60-602 407-514 752 59 233 257 418 492 461 95 17 127 17 220 1z"/><path d="M660 1290c0-30 1-31 38-24 45 8 42 5 35 32-4 17-13 22-39 22-31 0-34-3-34-30zM856 1303c-13-34-6-51 25-58 36-8 39-6 42 31 2 24-2 29-30 34-23 5-33 3-37-7zM498 1264c-31-17-32-18-18-45 10-18 13-18 40-4 31 16 34 23 24 49-7 19-11 19-46 0zM1027 1221c-22-37-22-36 12-60l29-21 21 34c27 43 27 43-9 61-37 19-33 20-53-14zM340 1145c-19-20-22-30-14-42 16-26 27-24 51 6 21 27 22 29 4 45-16 15-19 14-41-9zM1162 1094c-32-26-32-26-15-55 21-36 29-36 72 0l34 28-19 26c-24 33-31 33-72 1zM610 969c-36-28-66-52-69-54-2-2 11-23 29-46 29-36 34-49 35-105 1-47 7-71 21-91 31-41 67-64 111-70 32-4 66-27 188-129 82-68 153-124 156-124 8 0-60 150-122 271-26 52-33 77-34 130-1 57-5 72-29 104-30 39-78 65-121 65-14 0-25 3-25 8 0 4-17 26-38 49l-37 42-65-50zm189-144c31-16 41-33 41-71 0-33-42-74-75-74-35 0-75 42-75 78 0 31 14 54 45 70 26 15 31 15 64-3z"/><path d="M734 786c-3-8-4-25-2-38 2-18 9-23 33-23 28 0 30 3 30 35 0 31-3 35-28 38-17 2-29-2-33-12zM231 983c-13-29-14-53-2-53 5 0 16-2 24-6 15-6 43 48 33 64-13 22-44 19-55-5zM1245 936c-36-12-40-16-37-42 5-43 13-46 70-29 55 17 57 20 42 59-11 29-17 30-75 12zM186 805c-3-9-6-28-6-41 0-21 5-24 35-24 33 0 35 2 35 35 0 24-5 35-14 35-8 0-21 3-29 6s-17-2-21-11zM1220 741c0-11-3-26-6-34-4-12 7-16 58-19 68-4 78 2 78 45 0 27-1 27-65 27-57 0-65-2-65-19zM232 629c-30-9-33-13-27-37 10-40 19-45 60-32 28 9 35 16 30 29-4 9-10 24-12 34-6 19-5 19-51 6zM1170 580c-7-17-11-33-8-35 3-3 31-16 64-29l59-24 12 21c22 40 15 51-45 75-32 12-60 22-64 22-3 0-11-14-18-30zM311 461l-34-28 19-26c24-34 32-33 74 2l35 29-24 26c-14 14-27 26-30 26s-21-13-40-29zM1079 454l-23-25 54-49 55-48 23 21c12 11 22 26 22 32 0 10-92 95-103 95-2 0-14-11-28-26zM448 336c-16-24-28-46-28-49 0-7 61-40 64-35 17 21 56 84 56 90s-52 38-62 38c-2 0-15-20-30-44zM958 364l-28-15 31-62c17-34 33-63 34-65 4-5 65 27 65 34 0 12-61 124-68 124-4-1-19-8-34-16zM612 264c-6-31-9-60-7-64 3-4 18-10 35-12 27-4 31-1 40 31 23 90 23 88-2 95-48 12-53 8-66-50zM793 314c-7-3-10-17-8-32 17-111 13-102 52-102h36l-7 53c-3 28-6 60-6 70 0 12-8 17-27 16-16 0-33-3-40-5z"/></g></svg>