<svg version="1" xmlns="http://www.w3.org/2000/svg" width="149" height="149" viewBox="0 0 1490 1490"><g fill="#e95f0e"><path d="M554 1470c-255-67-463-274-531-530-24-89-24-291 0-380C92 301 299 96 559 29 663 2 827 2 931 29c259 67 467 272 536 531 24 89 24 291 0 380-68 257-277 465-533 530-103 27-280 27-380 0zm343-81c165-40 319-154 412-306 80-130 112-327 77-475-48-202-183-367-371-453-96-44-164-59-270-59s-174 15-270 59c-173 79-296 218-357 400-33 101-33 289 0 390 78 235 281 411 526 455 61 11 185 5 253-11z"/><path d="M605 1376c-232-53-420-235-479-463-21-80-21-246 0-327 26-99 89-211 164-285 76-76 148-121 252-159 65-23 88-26 203-26s138 3 203 26c161 58 287 165 359 304 55 106 73 180 73 304s-18 198-73 304c-72 140-200 248-359 303-90 32-250 40-343 19zm260-31c90-19 215-81 282-140s145-175 174-262c20-57 24-88 24-193s-4-136-24-193c-29-87-107-203-174-262-100-88-273-155-402-155s-302 67-402 155c-67 59-145 175-174 262-20 57-24 88-24 193 0 151 20 221 97 335 62 94 132 156 233 206 132 65 254 82 390 54z"/><path d="M596 1295c-208-57-371-238-406-450l-8-50 116-113 117-113-111 95c-62 53-115 96-119 96-3 0-5-15-3-32 3-30 28-52 278-245 151-117 279-213 285-213s134 96 285 213c250 193 275 215 278 245 2 17 0 32-3 32-4 0-57-43-119-96l-111-95 117 113 116 113-8 50c-36 214-199 394-410 450-100 27-97 29-105-85l-8-100h-64l-8 100-7 100-26-1c-15 0-49-7-76-14zm180-367c-3-13-6-49-6-80 0-55-1-58-25-58s-25 3-25 58c0 31-3 67-6 80-6 20-3 22 31 22s37-2 31-22zm-10-299c-3-17-6-42-6-55 0-15-6-24-15-24s-15 9-15 24c0 13-3 38-6 55-6 29-4 31 21 31s27-2 21-31zm-6-204c0-24-5-35-15-35s-15 11-15 35 5 35 15 35 15-11 15-35z"/></g></svg>